<?xml version="1.0" encoding="utf-8"?>
<!-- Generator: Adobe Illustrator 26.2.1, SVG Export Plug-In . SVG Version: 6.00 Build 0)  -->
<svg version="1.1" id="Layer_1" xmlns="http://www.w3.org/2000/svg" xmlns:xlink="http://www.w3.org/1999/xlink" x="0px" y="0px"
	 viewBox="0 0 1600 500" style="enable-background:new 0 0 1600 500;" xml:space="preserve">
<style type="text/css">
	.st0{fill:none;}
	.st1{opacity:0.46;fill:#FFFFFF;}
	.st2{opacity:0.46;}
	.st3{fill:#FFFFFF;}
	.st4{fill:url(#SVGID_1_);}
	.st5{fill:url(#New_Pattern);}
</style>
<pattern  x="274.1" y="-100.5" width="373.7" height="585.3" patternUnits="userSpaceOnUse" id="New_Pattern" viewBox="35.5 -609.6 373.7 585.3" style="overflow:visible;">
	<g>
		<rect x="35.5" y="-609.6" class="st0" width="373.7" height="585.3"/>
		<g>
			<path class="st1" d="M266.6-29.6c2.8,0,5.1-2.3,5.1-5.1c0-2.8-2.3-5.1-5.1-5.1c-2.4,0-4.4,1.6-5,3.9h-20.7v-4.1h-10.6v4.1h-19.6
				c-0.6-2.2-2.6-3.9-5-3.9c-2.8,0-5.1,2.3-5.1,5.1c0,2.8,2.3,5.1,5.1,5.1c2.6,0,4.8-2,5.1-4.5h14.1c-9.4,4-16.1,13-17,23.6h-4.1V0
				h10.6v-10.6h-3.8c1-11,9.1-20.1,19.7-22.4v3.5h10.6v-3.6c10.9,2.2,19.2,11.3,20.3,22.6h-3.7V0H268v-10.6h-4.1
				c-0.9-10.6-7.6-19.5-17-23.6h14.6C261.9-31.6,264-29.6,266.6-29.6z"/>
			<g class="st2">
				<path class="st3" d="M403.9-69.1c0-0.7-0.6-1.3-1.3-1.3c-0.7,0-1.3,0.6-1.3,1.3v13.4h-19.8v-14c0-0.7-0.6-1.3-1.3-1.3
					s-1.3,0.6-1.3,1.3v16.5h24.9V-69.1z"/>
				<path class="st3" d="M390.8-10.8C390.8-10.8,390.8-10.8,390.8-10.8l-17.1-24.6l7.1-14.8c0.3-0.6,1.1-0.9,1.7-0.6
					c0.6,0.3,0.9,1.1,0.6,1.7l-6.5,13.5l13.9,20l-0.2-13.1c-1.9-0.6-3.3-2.4-3.3-4.6c0-2.6,2.2-4.8,4.8-4.8c2.6,0,4.8,2.2,4.8,4.8
					c0,2.3-1.6,4.2-3.7,4.7l0.2,13.2l13.7-19.8l-7-14.3c-0.3-0.6,0-1.4,0.6-1.7c0.6-0.3,1.4,0,1.7,0.6l7.7,15.6L391.9-9.3
					L390.8-10.8z M391.8-31.2c1.2,0,2.3-1,2.3-2.3s-1-2.3-2.3-2.3c-1.2,0-2.3,1-2.3,2.3S390.5-31.2,391.8-31.2z"/>
			</g>
			<path class="st1" d="M348.3-113.7l-3.7,3.7c0,0.1-0.1,0.1-0.1,0.2c-0.1,0.1-0.1,0.1-0.2,0.1L313-78.4c-0.1,0.1-0.3,0.2-0.5,0.3
				c-0.1,0.1-0.2,0.1-0.3,0.2l-11.8,6.5c-0.2,0.1-0.3,0.2-0.5,0.2l-2.3,2.3c-0.4,0.4-0.9,0.6-1.4,0.6s-1-0.2-1.4-0.6
				c-0.7-0.7-0.7-2,0-2.7l2.3-2.3c0-0.1,0.1-0.3,0.2-0.4l6.4-11.8c0.1-0.1,0.1-0.2,0.2-0.3c0.1-0.2,0.1-0.3,0.3-0.5l35.3-35.3
				c1.2-1.2,2.7-1.8,4.3-1.8c1.6,0,3.2,0.6,4.3,1.8C350.7-120,350.7-116.1,348.3-113.7z M307.8-86.9c0.7,0.2,1.5,0.6,2.3,1.1
				l28.3-28.3l-1.7-1.7L307.8-86.9z M313-81.9l28.8-28.8l-1.6-1.6l-28.2,28.2C312.4-83.5,312.7-82.8,313-81.9z M301.3-76.2
				c0.2,0.1,0.4,0.2,0.5,0.4c0.2,0.2,0.3,0.3,0.4,0.5l8.6-4.7c-0.1-0.8-0.4-2.1-1.2-3c-1-1.1-2.5-1.6-3.6-1.8L301.3-76.2z
				 M346.6-120.6c-0.7-0.7-1.6-1.1-2.6-1.1s-1.9,0.4-2.6,1.1l-3,3l5.1,5.1l3-3C348-116.9,348-119.2,346.6-120.6z"/>
		</g>
		<g>
			<g class="st2">
				<path class="st3" d="M17.1-10.8C17.1-10.8,17.1-10.8,17.1-10.8L0-35.4l7.1-14.8c0.3-0.6,1.1-0.9,1.7-0.6
					c0.6,0.3,0.9,1.1,0.6,1.7L2.9-35.7l13.9,20l-0.2-13.1c-1.9-0.6-3.3-2.4-3.3-4.6c0-2.6,2.2-4.8,4.8-4.8c2.6,0,4.8,2.2,4.8,4.8
					c0,2.3-1.6,4.2-3.7,4.7l0.2,13.2L33-35.4l-7-14.3c-0.3-0.6,0-1.4,0.6-1.7c0.6-0.3,1.4,0,1.7,0.6L36-35.1L18.1-9.3L17.1-10.8z
					 M18-31.2c1.2,0,2.3-1,2.3-2.3s-1-2.3-2.3-2.3c-1.2,0-2.3,1-2.3,2.3S16.8-31.2,18-31.2z"/>
			</g>
			<g class="st2">
				<path class="st3" d="M69.3-73l24.2-10.7v-3.7L64.7-74.5v3L93.5-58v-3.7L69.3-73z"/>
				<path class="st3" d="M108.1-58.3v-5.1h-4.2v5.1H108.1z"/>
				<path class="st3" d="M124.1-58.3v-5.1h-4.2v5.1H124.1z"/>
				<path class="st3" d="M140.1-58.3v-5.1h-4.2v5.1H140.1z"/>
				<path class="st3" d="M179.3-74.5l-28.7-12.8v3.7L174.8-73l-24.2,11.3v3.7l28.7-13.5V-74.5z"/>
			</g>
		</g>
		<g>
			<path class="st1" d="M173.2-176c2.8,0,5.1-2.3,5.1-5.1c0-2.8-2.3-5.1-5.1-5.1c-2.4,0-4.4,1.6-5,3.9h-20.7v-4.1h-10.6v4.1h-19.6
				c-0.6-2.2-2.6-3.9-5-3.9c-2.8,0-5.1,2.3-5.1,5.1c0,2.8,2.3,5.1,5.1,5.1c2.6,0,4.8-2,5.1-4.5h14.1c-9.4,4-16.1,13-17,23.6h-4.1
				v10.6H121v-10.6h-3.8c1-11,9.1-20.1,19.7-22.4v3.5h10.6v-3.6c10.9,2.2,19.2,11.3,20.3,22.6H164v10.6h10.6v-10.6h-4.1
				c-0.9-10.6-7.6-19.5-17-23.6h14.6C168.4-177.9,170.6-176,173.2-176z"/>
			<g class="st2">
				<path class="st3" d="M310.4-215.5c0-0.7-0.6-1.3-1.3-1.3s-1.3,0.6-1.3,1.3v13.4h-19.8v-14c0-0.7-0.6-1.3-1.3-1.3
					c-0.7,0-1.3,0.6-1.3,1.3v16.5h24.9V-215.5z"/>
				<path class="st3" d="M297.4-157.1C297.4-157.1,297.4-157.1,297.4-157.1l-17.1-24.6l7.1-14.8c0.3-0.6,1.1-0.9,1.7-0.6
					c0.6,0.3,0.9,1.1,0.6,1.7l-6.5,13.5l13.9,20l-0.2-13.1c-1.9-0.6-3.3-2.4-3.3-4.6c0-2.6,2.2-4.8,4.8-4.8c2.6,0,4.8,2.2,4.8,4.8
					c0,2.3-1.6,4.2-3.7,4.7l0.2,13.2l13.7-19.8l-7-14.3c-0.3-0.6,0-1.4,0.6-1.7c0.6-0.3,1.4,0,1.7,0.6l7.7,15.6l-17.8,25.8
					L297.4-157.1z M298.3-177.5c1.2,0,2.3-1,2.3-2.3c0-1.2-1-2.3-2.3-2.3c-1.2,0-2.3,1-2.3,2.3C296.1-178.5,297.1-177.5,298.3-177.5
					z"/>
			</g>
			<path class="st1" d="M279-123.1c0,9.9-8,17.9-17.9,17.9c-9.5,0-17.3-7.4-17.9-16.8h-2.6v17h-37.3v-36.6h30.1l11.4-21.5l11.2,22.7
				c1.6-0.5,3.3-0.7,5.1-0.7C270.9-141,279-133,279-123.1z M238-121.9H223l9-17h-26.3v31.5H238V-121.9z M238-139h-3.2l-7.7,14.5H238
				V-139z M240.5-141.5v17h2.6c0.5-6.6,4.6-12.2,10.4-14.9l-8.9-18.1l-8.5,16H240.5z M245.7-124.5h15.2l-6.2-12.6
				C249.8-134.8,246.2-130.1,245.7-124.5z M276.4-123.1c0-8.5-6.9-15.4-15.4-15.4c-1.4,0-2.7,0.2-4,0.5l7.9,16h-19.3
				c0.6,8,7.2,14.3,15.3,14.3C269.5-107.7,276.4-114.6,276.4-123.1z"/>
			<g class="st2">
				<g>
					<path class="st3" d="M437.1-119.7c0-0.7-0.6-1.3-1.3-1.3h-11.4c-0.7,0-1.3,0.6-1.3,1.3c0,0.7,0.6,1.3,1.3,1.3h11.4
						C436.5-118.5,437.1-119,437.1-119.7z M414.2-119.7c0-0.7-0.6-1.3-1.3-1.3h-11.4c-0.7,0-1.3,0.6-1.3,1.3c0,0.7,0.6,1.3,1.3,1.3
						h11.4C413.6-118.5,414.2-119,414.2-119.7z"/>
					<path class="st3" d="M390.1-118.5h-8.6v-8.6c0-0.7,0.6-1.3,1.3-1.3s1.3,0.6,1.3,1.3v6.1h6.1c0.7,0,1.3,0.6,1.3,1.3
						C391.3-119,390.8-118.5,390.1-118.5z"/>
					<path class="st3" d="M382.7-136.5c-0.7,0-1.3-0.6-1.3-1.3v-10.7c0-0.7,0.6-1.3,1.3-1.3s1.3,0.6,1.3,1.3v10.7
						C384-137,383.4-136.5,382.7-136.5z"/>
					<path class="st3" d="M382.7-157.8c-0.7,0-1.3-0.6-1.3-1.3v-8.6h8.6c0.7,0,1.3,0.6,1.3,1.3c0,0.7-0.6,1.3-1.3,1.3H384v6.1
						C384-158.4,383.4-157.8,382.7-157.8z"/>
					<path class="st3" d="M437.1-166.4c0-0.7-0.6-1.3-1.3-1.3h-11.4c-0.7,0-1.3,0.6-1.3,1.3c0,0.7,0.6,1.3,1.3,1.3h11.4
						C436.5-165.1,437.1-165.7,437.1-166.4z M414.2-166.4c0-0.7-0.6-1.3-1.3-1.3h-11.4c-0.7,0-1.3,0.6-1.3,1.3
						c0,0.7,0.6,1.3,1.3,1.3h11.4C413.6-165.1,414.2-165.7,414.2-166.4z"/>
				</g>
				<path class="st3" d="M420.7-124.9c-0.3,0-0.7-0.1-0.9-0.4l-12.9-14l-13.8,14c-0.5,0.5-1.3,0.5-1.8,0c-0.5-0.5-0.5-1.3,0-1.8
					l15.6-15.9l14.7,15.9c0.5,0.5,0.4,1.3-0.1,1.8C421.3-125,421-124.9,420.7-124.9z"/>
			</g>
			<path class="st1" d="M254.9-260l-3.7,3.7c0,0.1-0.1,0.1-0.1,0.2c-0.1,0.1-0.1,0.1-0.2,0.1l-31.3,31.3c-0.1,0.1-0.3,0.2-0.5,0.3
				c-0.1,0.1-0.2,0.1-0.3,0.2l-11.8,6.5c-0.2,0.1-0.3,0.2-0.5,0.2l-2.3,2.3c-0.4,0.4-0.9,0.6-1.4,0.6c-0.5,0-1-0.2-1.4-0.6
				c-0.7-0.7-0.7-2,0-2.7l2.3-2.3c0-0.1,0.1-0.3,0.2-0.4l6.4-11.8c0.1-0.1,0.1-0.2,0.2-0.3c0.1-0.2,0.1-0.3,0.3-0.5l35.3-35.3
				c1.2-1.2,2.7-1.8,4.3-1.8c1.6,0,3.2,0.6,4.3,1.8C257.3-266.3,257.3-262.4,254.9-260z M214.4-233.3c0.7,0.2,1.5,0.6,2.3,1.1
				l28.3-28.3l-1.7-1.7L214.4-233.3z M219.6-228.3l28.8-28.8l-1.6-1.6l-28.2,28.2C218.9-229.8,219.3-229.1,219.6-228.3z
				 M207.8-222.5c0.2,0.1,0.4,0.2,0.5,0.4c0.2,0.2,0.3,0.3,0.4,0.5l8.6-4.7c-0.1-0.8-0.4-2.1-1.2-3c-1-1.1-2.5-1.6-3.6-1.8
				L207.8-222.5z M253.1-266.9c-0.7-0.7-1.6-1.1-2.6-1.1c-1,0-1.9,0.4-2.6,1.1l-3,3l5.1,5.1l3-3
				C254.5-263.2,254.5-265.5,253.1-266.9z"/>
			<g class="st2">
				<path class="st3" d="M349.6-219.3l24.2-10.7v-3.7L345-220.8v3l28.7,13.5v-3.7L349.6-219.3z"/>
				<path class="st3" d="M388.4-204.6v-5.1h-4.2v5.1H388.4z"/>
				<path class="st3" d="M404.4-204.6v-5.1h-4.2v5.1H404.4z"/>
			</g>
		</g>
		<g>
			<g class="st2">
				<g>
					<path class="st3" d="M82.1-118.5h-8.6c-0.7,0-1.3-0.6-1.3-1.3c0-0.7,0.6-1.3,1.3-1.3h6.1v-6.1c0-0.7,0.6-1.3,1.3-1.3
						c0.7,0,1.3,0.6,1.3,1.3V-118.5z"/>
					<path class="st3" d="M63.3-119.7c0-0.7-0.6-1.3-1.3-1.3H50.6c-0.7,0-1.3,0.6-1.3,1.3c0,0.7,0.6,1.3,1.3,1.3h11.4
						C62.8-118.5,63.3-119,63.3-119.7z M40.5-119.7c0-0.7-0.6-1.3-1.3-1.3H27.8c-0.7,0-1.3,0.6-1.3,1.3c0,0.7,0.6,1.3,1.3,1.3h11.4
						C39.9-118.5,40.5-119,40.5-119.7z"/>
					<path class="st3" d="M63.3-166.4c0-0.7-0.6-1.3-1.3-1.3H50.6c-0.7,0-1.3,0.6-1.3,1.3c0,0.7,0.6,1.3,1.3,1.3h11.4
						C62.8-165.1,63.3-165.7,63.3-166.4z M40.5-166.4c0-0.7-0.6-1.3-1.3-1.3H27.8c-0.7,0-1.3,0.6-1.3,1.3c0,0.7,0.6,1.3,1.3,1.3
						h11.4C39.9-165.1,40.5-165.7,40.5-166.4z"/>
					<path class="st3" d="M80.8-157.8c-0.7,0-1.3-0.6-1.3-1.3v-6.1h-6.1c-0.7,0-1.3-0.6-1.3-1.3c0-0.7,0.6-1.3,1.3-1.3h8.6v8.6
						C82.1-158.4,81.5-157.8,80.8-157.8z"/>
					<path class="st3" d="M80.8-136.5c-0.7,0-1.3-0.6-1.3-1.3v-10.7c0-0.7,0.6-1.3,1.3-1.3c0.7,0,1.3,0.6,1.3,1.3v10.7
						C82.1-137,81.5-136.5,80.8-136.5z"/>
				</g>
				<path class="st3" d="M47-124.9c-0.3,0-0.7-0.1-0.9-0.4l-12.9-14l-13.8,14c-0.5,0.5-1.3,0.5-1.8,0c-0.5-0.5-0.5-1.3,0-1.8
					L33.2-143L47.9-127c0.5,0.5,0.4,1.3-0.1,1.8C47.6-125,47.3-124.9,47-124.9z"/>
				<path class="st3" d="M53.6-151c0-3.8-3.1-6.9-6.9-6.9s-6.9,3.1-6.9,6.9c0,3.8,3.1,6.9,6.9,6.9S53.6-147.2,53.6-151z M51.1-151
					c0,2.4-2,4.4-4.4,4.4c-2.4,0-4.4-2-4.4-4.4s2-4.4,4.4-4.4C49.1-155.4,51.1-153.5,51.1-151z"/>
				<path class="st3" d="M71.8-124.9c-0.3,0-0.6-0.1-0.9-0.4l-14.2-14.2l-9,7.5c-0.5,0.4-1.3,0.4-1.8-0.2c-0.4-0.5-0.4-1.3,0.2-1.8
					l10.8-8.9l15.8,15.8c0.5,0.5,0.5,1.3,0,1.8C72.5-125.1,72.2-124.9,71.8-124.9z"/>
			</g>
			<g class="st2">
				<path class="st3" d="M46.6-204.6v-5.1h-4.2v5.1H46.6z"/>
				<path class="st3" d="M85.9-220.8l-28.7-12.8v3.7l24.2,10.7L57.1-208v3.7l28.7-13.5V-220.8z"/>
			</g>
		</g>
		<g>
			<path class="st1" d="M453.5-322.3c2.8,0,5.1-2.3,5.1-5.1c0-2.8-2.3-5.1-5.1-5.1c-2.4,0-4.4,1.6-5,3.9h-20.7v-4.1h-10.6v4.1h-19.6
				c-0.6-2.2-2.6-3.9-5-3.9c-2.8,0-5.1,2.3-5.1,5.1c0,2.8,2.3,5.1,5.1,5.1c2.6,0,4.8-2,5.1-4.5h14.1c-9.4,4-16.1,13-17,23.6h-4.1
				v10.6h10.6v-10.6h-3.8c1-11,9.1-20.1,19.7-22.4v3.5h10.6v-3.6c10.9,2.2,19.2,11.3,20.3,22.6h-3.7v10.6h10.6v-10.6h-4.1
				c-0.9-10.6-7.6-19.5-17-23.6h14.6C448.7-324.3,450.9-322.3,453.5-322.3z"/>
		</g>
		<g>
			<path class="st1" d="M79.8-322.3c2.8,0,5.1-2.3,5.1-5.1c0-2.8-2.3-5.1-5.1-5.1c-2.4,0-4.4,1.6-5,3.9H54.1v-4.1H43.5v4.1H23.9
				c-0.6-2.2-2.6-3.9-5-3.9c-2.8,0-5.1,2.3-5.1,5.1c0,2.8,2.3,5.1,5.1,5.1c2.6,0,4.8-2,5.1-4.5h14.1c-9.4,4-16.1,13-17,23.6H17v10.6
				h10.6v-10.6h-3.8c1-11,9.1-20.1,19.7-22.4v3.5h10.6v-3.6c10.9,2.2,19.2,11.3,20.3,22.6h-3.7v10.6h10.6v-10.6h-4.1
				c-0.9-10.6-7.6-19.5-17-23.6h14.6C75-324.3,77.2-322.3,79.8-322.3z"/>
			<g class="st2">
				<path class="st3" d="M217-361.8c0-0.7-0.6-1.3-1.3-1.3c-0.7,0-1.3,0.6-1.3,1.3v13.4h-19.8v-14c0-0.7-0.6-1.3-1.3-1.3
					c-0.7,0-1.3,0.6-1.3,1.3v16.5H217V-361.8z"/>
				<path class="st3" d="M203.9-303.5C203.9-303.5,203.9-303.5,203.9-303.5l-17.1-24.6l7.1-14.8c0.3-0.6,1.1-0.9,1.7-0.6
					c0.6,0.3,0.9,1.1,0.6,1.7l-6.5,13.5l13.9,20l-0.2-13.1c-1.9-0.6-3.3-2.4-3.3-4.6c0-2.6,2.2-4.8,4.8-4.8c2.6,0,4.8,2.2,4.8,4.8
					c0,2.3-1.6,4.2-3.7,4.7l0.2,13.2l13.7-19.8l-7-14.3c-0.3-0.6,0-1.4,0.6-1.7c0.6-0.3,1.4,0,1.7,0.6l7.7,15.6L205-301.9
					L203.9-303.5z M204.9-323.8c1.2,0,2.3-1,2.3-2.3c0-1.2-1-2.3-2.3-2.3c-1.2,0-2.3,1-2.3,2.3C202.7-324.8,203.7-323.8,204.9-323.8
					z"/>
			</g>
			<path class="st1" d="M185.6-269.4c0,9.9-8,17.9-17.9,17.9c-9.5,0-17.3-7.4-17.9-16.8h-2.6v17h-37.3v-36.6h30.1l11.4-21.5
				l11.2,22.7c1.6-0.5,3.3-0.7,5.1-0.7C177.5-287.3,185.6-279.3,185.6-269.4z M144.6-268.3h-15.1l9-17h-26.3v31.5h32.3V-268.3z
				 M144.6-285.3h-3.2l-7.7,14.5h10.9V-285.3z M147.1-287.8v17h2.6c0.5-6.6,4.6-12.2,10.4-14.9l-8.9-18.1l-8.5,16H147.1z
				 M152.3-270.8h15.2l-6.2-12.6C156.4-281.2,152.8-276.4,152.3-270.8z M183-269.4c0-8.5-6.9-15.4-15.4-15.4c-1.4,0-2.7,0.2-4,0.5
				l7.9,16h-19.3c0.6,8,7.2,14.3,15.3,14.3C176.1-254,183-260.9,183-269.4z"/>
			<g class="st2">
				<g>
					<path class="st3" d="M362.4-264.8h-8.6c-0.7,0-1.3-0.6-1.3-1.3s0.6-1.3,1.3-1.3h6.1v-6.1c0-0.7,0.6-1.3,1.3-1.3
						s1.3,0.6,1.3,1.3V-264.8z"/>
					<path class="st3" d="M343.6-266.1c0-0.7-0.6-1.3-1.3-1.3h-11.4c-0.7,0-1.3,0.6-1.3,1.3s0.6,1.3,1.3,1.3h11.4
						C343.1-264.8,343.6-265.4,343.6-266.1z M320.8-266.1c0-0.7-0.6-1.3-1.3-1.3h-11.4c-0.7,0-1.3,0.6-1.3,1.3s0.6,1.3,1.3,1.3h11.4
						C320.2-264.8,320.8-265.4,320.8-266.1z"/>
					<path class="st3" d="M296.6-264.8H288v-8.6c0-0.7,0.6-1.3,1.3-1.3s1.3,0.6,1.3,1.3v6.1h6.1c0.7,0,1.3,0.6,1.3,1.3
						S297.3-264.8,296.6-264.8z"/>
					<path class="st3" d="M289.3-282.8c-0.7,0-1.3-0.6-1.3-1.3v-10.7c0-0.7,0.6-1.3,1.3-1.3s1.3,0.6,1.3,1.3v10.7
						C290.6-283.4,290-282.8,289.3-282.8z"/>
					<path class="st3" d="M289.3-304.1c-0.7,0-1.3-0.6-1.3-1.3v-8.6h8.6c0.7,0,1.3,0.6,1.3,1.3c0,0.7-0.6,1.3-1.3,1.3h-6.1v6.1
						C290.6-304.7,290-304.1,289.3-304.1z"/>
					<path class="st3" d="M343.6-312.7c0-0.7-0.6-1.3-1.3-1.3h-11.4c-0.7,0-1.3,0.6-1.3,1.3c0,0.7,0.6,1.3,1.3,1.3h11.4
						C343.1-311.5,343.6-312,343.6-312.7z M320.8-312.7c0-0.7-0.6-1.3-1.3-1.3h-11.4c-0.7,0-1.3,0.6-1.3,1.3c0,0.7,0.6,1.3,1.3,1.3
						h11.4C320.2-311.5,320.8-312,320.8-312.7z"/>
					<path class="st3" d="M361.1-304.1c-0.7,0-1.3-0.6-1.3-1.3v-6.1h-6.1c-0.7,0-1.3-0.6-1.3-1.3c0-0.7,0.6-1.3,1.3-1.3h8.6v8.6
						C362.4-304.7,361.8-304.1,361.1-304.1z"/>
					<path class="st3" d="M361.1-282.8c-0.7,0-1.3-0.6-1.3-1.3v-10.7c0-0.7,0.6-1.3,1.3-1.3s1.3,0.6,1.3,1.3v10.7
						C362.4-283.4,361.8-282.8,361.1-282.8z"/>
				</g>
				<path class="st3" d="M327.3-271.3c-0.3,0-0.7-0.1-0.9-0.4l-12.9-14l-13.8,14c-0.5,0.5-1.3,0.5-1.8,0c-0.5-0.5-0.5-1.3,0-1.8
					l15.6-15.9l14.7,15.9c0.5,0.5,0.4,1.3-0.1,1.8C327.9-271.4,327.6-271.3,327.3-271.3z"/>
				<path class="st3" d="M333.9-297.4c0-3.8-3.1-6.9-6.9-6.9c-3.8,0-6.9,3.1-6.9,6.9c0,3.8,3.1,6.9,6.9,6.9
					C330.8-290.5,333.9-293.6,333.9-297.4z M331.4-297.4c0,2.4-2,4.4-4.4,4.4c-2.4,0-4.4-2-4.4-4.4c0-2.4,2-4.4,4.4-4.4
					C329.4-301.8,331.4-299.8,331.4-297.4z"/>
				<path class="st3" d="M352.1-271.3c-0.3,0-0.6-0.1-0.9-0.4l-14.2-14.2l-9,7.5c-0.5,0.4-1.3,0.4-1.8-0.2c-0.4-0.5-0.4-1.3,0.2-1.8
					l10.8-8.9l15.8,15.8c0.5,0.5,0.5,1.3,0,1.8C352.8-271.4,352.4-271.3,352.1-271.3z"/>
			</g>
			<path class="st1" d="M161.5-406.4l-3.7,3.7c0,0.1-0.1,0.1-0.1,0.2c-0.1,0.1-0.1,0.1-0.2,0.1L126.1-371c-0.1,0.1-0.3,0.2-0.5,0.3
				c-0.1,0.1-0.2,0.1-0.3,0.2l-11.8,6.5c-0.2,0.1-0.3,0.2-0.5,0.2l-2.3,2.3c-0.4,0.4-0.9,0.6-1.4,0.6s-1-0.2-1.4-0.6
				c-0.7-0.7-0.7-2,0-2.7l2.3-2.3c0-0.1,0.1-0.3,0.2-0.4l6.4-11.8c0.1-0.1,0.1-0.2,0.2-0.3c0.1-0.2,0.1-0.3,0.3-0.5l35.3-35.3
				c1.2-1.2,2.7-1.8,4.3-1.8c1.6,0,3.2,0.6,4.3,1.8C163.9-412.6,163.9-408.7,161.5-406.4z M120.9-379.6c0.7,0.2,1.5,0.6,2.3,1.1
				l28.3-28.3l-1.7-1.7L120.9-379.6z M126.1-374.6l28.8-28.8l-1.6-1.6L125-376.8C125.5-376.2,125.9-375.4,126.1-374.6z M114.4-368.8
				c0.2,0.1,0.4,0.2,0.5,0.4c0.2,0.2,0.3,0.3,0.4,0.5l8.6-4.7c-0.1-0.8-0.4-2.1-1.2-3c-1-1.1-2.5-1.6-3.6-1.8L114.4-368.8z
				 M159.7-413.2c-0.7-0.7-1.6-1.1-2.6-1.1c-1,0-1.9,0.4-2.6,1.1l-3,3l5.1,5.1l3-3C161.1-409.5,161.1-411.8,159.7-413.2z"/>
			<g class="st2">
				<path class="st3" d="M256.1-365.6l24.2-10.7v-3.7l-28.7,12.8v3l28.7,13.5v-3.7L256.1-365.6z"/>
				<path class="st3" d="M295-351v-5.1h-4.2v5.1H295z"/>
				<path class="st3" d="M310.9-351v-5.1h-4.2v5.1H310.9z"/>
				<path class="st3" d="M326.9-351v-5.1h-4.2v5.1H326.9z"/>
				<path class="st3" d="M366.2-367.2L337.4-380v3.7l24.2,10.7l-24.2,11.3v3.7l28.7-13.5V-367.2z"/>
			</g>
		</g>
		<g>
			<path class="st1" d="M360.1-468.6c2.8,0,5.1-2.3,5.1-5.1c0-2.8-2.3-5.1-5.1-5.1c-2.4,0-4.4,1.6-5,3.9h-20.7v-4.1h-10.6v4.1h-19.6
				c-0.6-2.2-2.6-3.9-5-3.9c-2.8,0-5.1,2.3-5.1,5.1c0,2.8,2.3,5.1,5.1,5.1c2.6,0,4.8-2,5.1-4.5h14.1c-9.4,4-16.1,13-17,23.6h-4.1
				v10.6h10.6v-10.6h-3.8c1-11,9.1-20.1,19.7-22.4v3.5h10.6v-3.6c10.9,2.2,19.2,11.3,20.3,22.6h-3.7v10.6h10.6v-10.6h-4.1
				c-0.9-10.6-7.6-19.5-17-23.6H355C355.3-470.6,357.5-468.6,360.1-468.6z"/>
			<path class="st1" d="M465.9-415.7c0,9.9-8,17.9-17.9,17.9c-9.5,0-17.3-7.4-17.9-16.8h-2.6v17h-37.3v-36.6h30.1l11.4-21.5
				l11.2,22.7c1.6-0.5,3.3-0.7,5.1-0.7C457.8-433.6,465.9-425.6,465.9-415.7z M424.9-414.6h-15.1l9-17h-26.3v31.5h32.3V-414.6z
				 M424.9-431.6h-3.2l-7.7,14.5h10.9V-431.6z M427.4-434.1v17h2.6c0.5-6.6,4.6-12.2,10.4-14.9l-8.9-18.1l-8.5,16H427.4z
				 M432.6-417.1h15.2l-6.2-12.6C436.7-427.5,433.1-422.7,432.6-417.1z M463.3-415.7c0-8.5-6.9-15.4-15.4-15.4c-1.4,0-2.7,0.2-4,0.5
				l7.9,16h-19.3c0.6,8,7.2,14.3,15.3,14.3C456.4-400.3,463.3-407.2,463.3-415.7z"/>
			<path class="st1" d="M441.8-552.7L438-549c0,0.1-0.1,0.1-0.1,0.2c-0.1,0.1-0.1,0.1-0.2,0.1l-31.3,31.3c-0.1,0.1-0.3,0.2-0.5,0.3
				c-0.1,0.1-0.2,0.1-0.3,0.2l-11.8,6.5c-0.2,0.1-0.3,0.2-0.5,0.2l-2.3,2.3c-0.4,0.4-0.9,0.6-1.4,0.6c-0.5,0-1-0.2-1.4-0.6
				c-0.7-0.7-0.7-2,0-2.7l2.3-2.3c0-0.1,0.1-0.3,0.2-0.4l6.4-11.8c0.1-0.1,0.1-0.2,0.2-0.3c0.1-0.2,0.1-0.3,0.3-0.5l35.3-35.3
				c1.2-1.2,2.7-1.8,4.3-1.8c1.6,0,3.2,0.6,4.3,1.8C444.2-559,444.2-555.1,441.8-552.7z M401.2-525.9c0.7,0.2,1.5,0.6,2.3,1.1
				l28.3-28.3l-1.7-1.7L401.2-525.9z M406.4-520.9l28.8-28.8l-1.6-1.6l-28.2,28.2C405.8-522.5,406.2-521.8,406.4-520.9z
				 M394.7-515.2c0.2,0.1,0.4,0.2,0.5,0.4c0.2,0.2,0.3,0.3,0.4,0.5l8.6-4.7c-0.1-0.8-0.4-2.1-1.2-3c-1-1.1-2.5-1.6-3.6-1.8
				L394.7-515.2z M440-559.6c-0.7-0.7-1.6-1.1-2.6-1.1s-1.9,0.4-2.6,1.1l-3,3l5.1,5.1l3-3C441.4-555.9,441.4-558.2,440-559.6z"/>
		</g>
		<g>
			<g class="st2">
				<path class="st3" d="M123.6-508.1c0-0.7-0.6-1.3-1.3-1.3s-1.3,0.6-1.3,1.3v13.4h-19.8v-14c0-0.7-0.6-1.3-1.3-1.3
					s-1.3,0.6-1.3,1.3v16.5h24.9V-508.1z"/>
				<path class="st3" d="M110.5-449.8C110.5-449.8,110.5-449.8,110.5-449.8l-17.1-24.6l7.1-14.8c0.3-0.6,1.1-0.9,1.7-0.6
					c0.6,0.3,0.9,1.1,0.6,1.7l-6.5,13.5l13.9,20l-0.2-13.1c-1.9-0.6-3.3-2.4-3.3-4.6c0-2.6,2.2-4.8,4.8-4.8c2.6,0,4.8,2.2,4.8,4.8
					c0,2.3-1.6,4.2-3.7,4.7l0.2,13.2l13.7-19.8l-7-14.3c-0.3-0.6,0-1.4,0.6-1.7c0.6-0.3,1.4,0,1.7,0.6l7.7,15.6l-17.8,25.8
					L110.5-449.8z M111.5-470.1c1.2,0,2.3-1,2.3-2.3s-1-2.3-2.3-2.3c-1.2,0-2.3,1-2.3,2.3S110.2-470.1,111.5-470.1z"/>
			</g>
			<path class="st1" d="M92.1-415.7c0,9.9-8,17.9-17.9,17.9c-9.5,0-17.3-7.4-17.9-16.8h-2.6v17H16.3v-36.6h30.1l11.4-21.5l11.2,22.7
				c1.6-0.5,3.3-0.7,5.1-0.7C84.1-433.6,92.1-425.6,92.1-415.7z M51.2-414.6H36.1l9-17H18.9v31.5h32.3V-414.6z M51.2-431.6H48
				l-7.7,14.5h10.9V-431.6z M53.7-434.1v17h2.6c0.5-6.6,4.6-12.2,10.4-14.9l-8.9-18.1l-8.5,16H53.7z M58.9-417.1h15.2l-6.2-12.6
				C62.9-427.5,59.4-422.7,58.9-417.1z M89.6-415.7c0-8.5-6.9-15.4-15.4-15.4c-1.4,0-2.7,0.2-4,0.5l7.9,16H58.9
				c0.6,8,7.2,14.3,15.3,14.3C82.7-400.3,89.6-407.2,89.6-415.7z"/>
			<g class="st2">
				<g>
					<path class="st3" d="M269-411.1h-8.6c-0.7,0-1.3-0.6-1.3-1.3c0-0.7,0.6-1.3,1.3-1.3h6.1v-6.1c0-0.7,0.6-1.3,1.3-1.3
						c0.7,0,1.3,0.6,1.3,1.3V-411.1z"/>
					<path class="st3" d="M250.2-412.4c0-0.7-0.6-1.3-1.3-1.3h-11.4c-0.7,0-1.3,0.6-1.3,1.3c0,0.7,0.6,1.3,1.3,1.3h11.4
						C249.6-411.1,250.2-411.7,250.2-412.4z M227.3-412.4c0-0.7-0.6-1.3-1.3-1.3h-11.4c-0.7,0-1.3,0.6-1.3,1.3
						c0,0.7,0.6,1.3,1.3,1.3h11.4C226.8-411.1,227.3-411.7,227.3-412.4z"/>
					<path class="st3" d="M203.2-411.1h-8.6v-8.6c0-0.7,0.6-1.3,1.3-1.3c0.7,0,1.3,0.6,1.3,1.3v6.1h6.1c0.7,0,1.3,0.6,1.3,1.3
						C204.5-411.7,203.9-411.1,203.2-411.1z"/>
					<path class="st3" d="M195.9-429.1c-0.7,0-1.3-0.6-1.3-1.3V-441c0-0.7,0.6-1.3,1.3-1.3c0.7,0,1.3,0.6,1.3,1.3v10.7
						C197.1-429.7,196.6-429.1,195.9-429.1z"/>
					<path class="st3" d="M195.9-450.5c-0.7,0-1.3-0.6-1.3-1.3v-8.6h8.6c0.7,0,1.3,0.6,1.3,1.3s-0.6,1.3-1.3,1.3h-6.1v6.1
						C197.1-451,196.6-450.5,195.9-450.5z"/>
					<path class="st3" d="M250.2-459c0-0.7-0.6-1.3-1.3-1.3h-11.4c-0.7,0-1.3,0.6-1.3,1.3s0.6,1.3,1.3,1.3h11.4
						C249.6-457.8,250.2-458.3,250.2-459z M227.3-459c0-0.7-0.6-1.3-1.3-1.3h-11.4c-0.7,0-1.3,0.6-1.3,1.3s0.6,1.3,1.3,1.3h11.4
						C226.8-457.8,227.3-458.3,227.3-459z"/>
					<path class="st3" d="M267.7-450.5c-0.7,0-1.3-0.6-1.3-1.3v-6.1h-6.1c-0.7,0-1.3-0.6-1.3-1.3s0.6-1.3,1.3-1.3h8.6v8.6
						C269-451,268.4-450.5,267.7-450.5z"/>
					<path class="st3" d="M267.7-429.1c-0.7,0-1.3-0.6-1.3-1.3V-441c0-0.7,0.6-1.3,1.3-1.3c0.7,0,1.3,0.6,1.3,1.3v10.7
						C269-429.7,268.4-429.1,267.7-429.1z"/>
				</g>
				<path class="st3" d="M233.8-417.6c-0.3,0-0.7-0.1-0.9-0.4L220-432l-13.8,14c-0.5,0.5-1.3,0.5-1.8,0c-0.5-0.5-0.5-1.3,0-1.8
					l15.6-15.9l14.7,15.9c0.5,0.5,0.4,1.3-0.1,1.8C234.5-417.7,234.1-417.6,233.8-417.6z"/>
				<path class="st3" d="M240.5-443.7c0-3.8-3.1-6.9-6.9-6.9s-6.9,3.1-6.9,6.9c0,3.8,3.1,6.9,6.9,6.9S240.5-439.9,240.5-443.7z
					 M237.9-443.7c0,2.4-2,4.4-4.4,4.4s-4.4-2-4.4-4.4c0-2.4,2-4.4,4.4-4.4S237.9-446.1,237.9-443.7z"/>
				<path class="st3" d="M258.7-417.6c-0.3,0-0.6-0.1-0.9-0.4l-14.2-14.2l-9,7.5c-0.5,0.4-1.3,0.4-1.8-0.2c-0.4-0.5-0.4-1.3,0.2-1.8
					l10.8-8.9l15.8,15.8c0.5,0.5,0.5,1.3,0,1.8C259.3-417.7,259-417.6,258.7-417.6z"/>
			</g>
			<path class="st1" d="M68-552.7l-3.7,3.7c0,0.1-0.1,0.1-0.1,0.2c-0.1,0.1-0.1,0.1-0.2,0.1l-31.3,31.3c-0.1,0.1-0.3,0.2-0.5,0.3
				c-0.1,0.1-0.2,0.1-0.3,0.2l-11.8,6.5c-0.2,0.1-0.3,0.2-0.5,0.2l-2.3,2.3c-0.4,0.4-0.9,0.6-1.4,0.6s-1-0.2-1.4-0.6
				c-0.7-0.7-0.7-2,0-2.7l2.3-2.3c0-0.1,0.1-0.3,0.2-0.4l6.4-11.8c0.1-0.1,0.1-0.2,0.2-0.3c0.1-0.2,0.1-0.3,0.3-0.5l35.3-35.3
				c1.2-1.2,2.7-1.8,4.3-1.8c1.6,0,3.2,0.6,4.3,1.8C70.4-559,70.4-555.1,68-552.7z M27.5-525.9c0.7,0.2,1.5,0.6,2.3,1.1l28.3-28.3
				l-1.7-1.7L27.5-525.9z M32.7-520.9l28.8-28.8l-1.6-1.6l-28.2,28.2C32.1-522.5,32.4-521.8,32.7-520.9z M21-515.2
				c0.2,0.1,0.4,0.2,0.5,0.4c0.2,0.2,0.3,0.3,0.4,0.5l8.6-4.7c-0.1-0.8-0.4-2.1-1.2-3c-1-1.1-2.5-1.6-3.6-1.8L21-515.2z M66.3-559.6
				c-0.7-0.7-1.6-1.1-2.6-1.1c-1,0-1.9,0.4-2.6,1.1l-3,3l5.1,5.1l3-3C67.7-555.9,67.7-558.2,66.3-559.6z"/>
			<g class="st2">
				<path class="st3" d="M162.7-511.9l24.2-10.7v-3.7l-28.7,12.8v3l28.7,13.5v-3.7L162.7-511.9z"/>
				<path class="st3" d="M201.5-497.3v-5.1h-4.2v5.1H201.5z"/>
				<path class="st3" d="M217.5-497.3v-5.1h-4.2v5.1H217.5z"/>
				<path class="st3" d="M233.5-497.3v-5.1h-4.2v5.1H233.5z"/>
				<path class="st3" d="M272.7-513.5L244-526.3v3.7l24.2,10.7L244-500.6v3.7l28.7-13.5V-513.5z"/>
			</g>
		</g>
		<g>
			<path class="st1" d="M266.6-614.9c2.8,0,5.1-2.3,5.1-5.1c0-2.8-2.3-5.1-5.1-5.1c-2.4,0-4.4,1.6-5,3.9h-20.7v-4.1h-10.6v4.1h-19.6
				c-0.6-2.2-2.6-3.9-5-3.9c-2.8,0-5.1,2.3-5.1,5.1c0,2.8,2.3,5.1,5.1,5.1c2.6,0,4.8-2,5.1-4.5h14.1c-9.4,4-16.1,13-17,23.6h-4.1
				v10.6h10.6v-10.6h-3.8c1-11,9.1-20.1,19.7-22.4v3.5h10.6v-3.6c10.9,2.2,19.2,11.3,20.3,22.6h-3.7v10.6H268v-10.6h-4.1
				c-0.9-10.6-7.6-19.5-17-23.6h14.6C261.9-616.9,264-614.9,266.6-614.9z"/>
			<g class="st2">
				<path class="st3" d="M390.8-596.1C390.8-596.1,390.8-596.1,390.8-596.1l-17.1-24.6l7.1-14.8c0.3-0.6,1.1-0.9,1.7-0.6
					c0.6,0.3,0.9,1.1,0.6,1.7l-6.5,13.5l13.9,20l-0.2-13.1c-1.9-0.6-3.3-2.4-3.3-4.6c0-2.6,2.2-4.8,4.8-4.8c2.6,0,4.8,2.2,4.8,4.8
					c0,2.3-1.6,4.2-3.7,4.7l0.2,13.2l13.7-19.8l-7-14.3c-0.3-0.6,0-1.4,0.6-1.7c0.6-0.3,1.4,0,1.7,0.6l7.7,15.6l-17.8,25.8
					L390.8-596.1z M391.8-616.5c1.2,0,2.3-1,2.3-2.3s-1-2.3-2.3-2.3c-1.2,0-2.3,1-2.3,2.3S390.5-616.5,391.8-616.5z"/>
			</g>
			<path class="st1" d="M372.4-562c0,9.9-8,17.9-17.9,17.9c-9.5,0-17.3-7.4-17.9-16.8H334v17h-37.3v-36.6h30.1l11.4-21.5l11.2,22.7
				c1.6-0.5,3.3-0.7,5.1-0.7C364.4-580,372.4-571.9,372.4-562z M331.4-560.9h-15.1l9-17h-26.3v31.5h32.3V-560.9z M331.4-578h-3.2
				l-7.7,14.5h10.9V-578z M334-580.5v17h2.6c0.5-6.6,4.6-12.2,10.4-14.9l-8.9-18.1l-8.5,16H334z M339.2-563.4h15.2l-6.2-12.6
				C343.2-573.8,339.7-569.1,339.2-563.4z M369.9-562c0-8.5-6.9-15.4-15.4-15.4c-1.4,0-2.7,0.2-4,0.5l7.9,16h-19.3
				c0.6,8,7.2,14.3,15.3,14.3C363-546.6,369.9-553.5,369.9-562z"/>
		</g>
		<g>
			<g class="st2">
				<path class="st3" d="M17.1-596.1C17.1-596.1,17.1-596.1,17.1-596.1L0-620.7l7.1-14.8c0.3-0.6,1.1-0.9,1.7-0.6
					c0.6,0.3,0.9,1.1,0.6,1.7l-6.5,13.5l13.9,20l-0.2-13.1c-1.9-0.6-3.3-2.4-3.3-4.6c0-2.6,2.2-4.8,4.8-4.8c2.6,0,4.8,2.2,4.8,4.8
					c0,2.3-1.6,4.2-3.7,4.7l0.2,13.2L33-620.7L26-635c-0.3-0.6,0-1.4,0.6-1.7c0.6-0.3,1.4,0,1.7,0.6l7.7,15.6l-17.8,25.8L17.1-596.1
					z M18-616.5c1.2,0,2.3-1,2.3-2.3s-1-2.3-2.3-2.3c-1.2,0-2.3,1-2.3,2.3S16.8-616.5,18-616.5z"/>
			</g>
			<g class="st2">
				<g>
					<path class="st3" d="M175.5-557.4H167c-0.7,0-1.3-0.6-1.3-1.3c0-0.7,0.6-1.3,1.3-1.3h6.1v-6.1c0-0.7,0.6-1.3,1.3-1.3
						c0.7,0,1.3,0.6,1.3,1.3V-557.4z"/>
					<path class="st3" d="M156.8-558.7c0-0.7-0.6-1.3-1.3-1.3h-11.4c-0.7,0-1.3,0.6-1.3,1.3c0,0.7,0.6,1.3,1.3,1.3h11.4
						C156.2-557.4,156.8-558,156.8-558.7z M133.9-558.7c0-0.7-0.6-1.3-1.3-1.3h-11.4c-0.7,0-1.3,0.6-1.3,1.3c0,0.7,0.6,1.3,1.3,1.3
						h11.4C133.3-557.4,133.9-558,133.9-558.7z"/>
					<path class="st3" d="M109.8-557.4h-8.6v-8.6c0-0.7,0.6-1.3,1.3-1.3c0.7,0,1.3,0.6,1.3,1.3v6.1h6.1c0.7,0,1.3,0.6,1.3,1.3
						C111-558,110.5-557.4,109.8-557.4z"/>
					<path class="st3" d="M102.4-575.4c-0.7,0-1.3-0.6-1.3-1.3v-10.7c0-0.7,0.6-1.3,1.3-1.3c0.7,0,1.3,0.6,1.3,1.3v10.7
						C103.7-576,103.1-575.4,102.4-575.4z"/>
					<path class="st3" d="M102.4-596.8c-0.7,0-1.3-0.6-1.3-1.3v-8.6h8.6c0.7,0,1.3,0.6,1.3,1.3s-0.6,1.3-1.3,1.3h-6.1v6.1
						C103.7-597.3,103.1-596.8,102.4-596.8z"/>
					<path class="st3" d="M156.8-605.4c0-0.7-0.6-1.3-1.3-1.3h-11.4c-0.7,0-1.3,0.6-1.3,1.3s0.6,1.3,1.3,1.3h11.4
						C156.2-604.1,156.8-604.7,156.8-605.4z M133.9-605.4c0-0.7-0.6-1.3-1.3-1.3h-11.4c-0.7,0-1.3,0.6-1.3,1.3s0.6,1.3,1.3,1.3h11.4
						C133.3-604.1,133.9-604.7,133.9-605.4z"/>
					<path class="st3" d="M174.3-596.8c-0.7,0-1.3-0.6-1.3-1.3v-6.1H167c-0.7,0-1.3-0.6-1.3-1.3s0.6-1.3,1.3-1.3h8.6v8.6
						C175.5-597.3,175-596.8,174.3-596.8z"/>
					<path class="st3" d="M174.3-575.4c-0.7,0-1.3-0.6-1.3-1.3v-10.7c0-0.7,0.6-1.3,1.3-1.3c0.7,0,1.3,0.6,1.3,1.3v10.7
						C175.5-576,175-575.4,174.3-575.4z"/>
				</g>
				<path class="st3" d="M140.4-563.9c-0.3,0-0.7-0.1-0.9-0.4l-12.9-14l-13.8,14c-0.5,0.5-1.3,0.5-1.8,0c-0.5-0.5-0.5-1.3,0-1.8
					l15.6-15.9l14.7,15.9c0.5,0.5,0.4,1.3-0.1,1.8C141-564,140.7-563.9,140.4-563.9z"/>
				<path class="st3" d="M147-590c0-3.8-3.1-6.9-6.9-6.9c-3.8,0-6.9,3.1-6.9,6.9s3.1,6.9,6.9,6.9C143.9-583.1,147-586.2,147-590z
					 M144.5-590c0,2.4-2,4.4-4.4,4.4c-2.4,0-4.4-2-4.4-4.4s2-4.4,4.4-4.4C142.6-594.4,144.5-592.4,144.5-590z"/>
				<path class="st3" d="M165.3-563.9c-0.3,0-0.6-0.1-0.9-0.4l-14.2-14.2l-9,7.5c-0.5,0.4-1.3,0.4-1.8-0.2c-0.4-0.5-0.4-1.3,0.2-1.8
					l10.8-8.9l15.8,15.8c0.5,0.5,0.5,1.3,0,1.8C165.9-564,165.6-563.9,165.3-563.9z"/>
			</g>
		</g>
	</g>
</pattern>
<linearGradient id="SVGID_1_" gradientUnits="userSpaceOnUse" x1="275" y1="775" x2="1325" y2="-275">
	<stop  offset="0" style="stop-color:#5BA4DB"/>
	<stop  offset="1" style="stop-color:#1D3D91"/>
</linearGradient>
<rect class="st4" width="1600" height="500"/>
<rect class="st5" width="1600" height="500"/>
<g>
</g>
<g>
</g>
<g>
</g>
<g>
</g>
<g>
</g>
<g>
</g>
</svg>
