<?xml version="1.0" encoding="utf-8"?>
<!-- Generator: Adobe Illustrator 26.3.1, SVG Export Plug-In . SVG Version: 6.00 Build 0)  -->
<svg version="1.1" id="Layer_1" xmlns="http://www.w3.org/2000/svg" xmlns:xlink="http://www.w3.org/1999/xlink" x="0px" y="0px"
	 viewBox="0 0 376 325.6" style="enable-background:new 0 0 376 325.6;" xml:space="preserve">
<style type="text/css">
	.st0{fill:#FFFFFF;}
	.st1{fill:none;stroke:#000000;stroke-width:0.5;stroke-miterlimit:10;}
</style>
<polygon class="st0" points="139.3,82 139.3,32.3 112.7,32.3 84,82 46.7,146.6 171.6,146.6 171.6,325.6 94,325.6 46.7,243.7 
	84,243.7 112.7,293.3 139.3,293.3 139.3,179 9.3,179 0,162.8 9.3,146.6 46.7,82 94,0 171.6,0 171.6,82 "/>
<path class="st0" d="M366.7,146.6L329.3,82L282,0h-78v325.6h32.4V179h130.4l9.3-16.2L366.7,146.6z M236.3,146.6V32.3h27L292,82
	l37.3,64.7H236.3z"/>
<line class="st0" x1="292" y1="82" x2="236.3" y2="82"/>
<line class="st0" x1="139.3" y1="82" x2="84" y2="82"/>
<line class="st1" x1="139.3" y1="243.7" x2="84" y2="243.7"/>
<g>
</g>
<g>
</g>
<g>
</g>
<g>
</g>
<g>
</g>
<g>
</g>
</svg>
